<?xml version="1.0" standalone="no"?>
<!DOCTYPE svg PUBLIC "-//W3C//DTD SVG 20010904//EN"
 "http://www.w3.org/TR/2001/REC-SVG-20010904/DTD/svg10.dtd">
<svg version="1.0" xmlns="http://www.w3.org/2000/svg"
 width="775.000000pt" height="521.000000pt" viewBox="0 0 775.000000 521.000000"
 preserveAspectRatio="xMidYMid meet">
<metadata>
Created by potrace 1.16, written by Peter Selinger 2001-2019
</metadata>
<g transform="translate(0.000000,521.000000) scale(0.100000,-0.100000)"
fill="#9e1149" stroke="none">
<path d="M6574 5078 c-21 -10 -54 -97 -54 -141 0 -10 -4 -25 -9 -35 -5 -9 -16
-43 -25 -74 -10 -32 -20 -58 -24 -58 -4 0 -17 7 -28 15 -81 56 -262 79 -375
46 -36 -10 -84 -28 -108 -41 -50 -25 -161 -131 -183 -175 l-16 -29 -21 46
c-11 26 -21 50 -21 54 0 3 -20 33 -44 65 -102 135 -243 200 -421 193 -216 -9
-392 -183 -456 -452 -29 -123 -29 -341 0 -439 5 -18 8 -33 6 -33 -3 0 0 -12 5
-26 9 -22 5 -31 -33 -71 -38 -40 -48 -45 -92 -48 -170 -10 -252 -18 -268 -27
-22 -11 -20 -67 3 -78 55 -27 189 -70 218 -70 12 0 22 -4 22 -10 0 -5 9 -10
19 -10 40 0 95 -75 105 -144 6 -33 19 -311 18 -359 -2 -53 14 -77 51 -77 37 0
57 15 57 42 0 10 4 26 10 36 8 15 19 56 36 142 3 14 9 34 14 45 7 17 20 65 35
128 14 59 16 61 35 29 10 -17 30 -43 44 -59 13 -15 56 -65 95 -110 62 -72 195
-197 305 -289 95 -79 147 -70 396 68 195 109 435 312 546 463 24 33 48 65 52
70 24 32 73 120 101 185 18 41 37 83 42 92 5 9 12 36 15 60 4 24 10 48 14 53
12 15 31 233 26 290 -3 28 -10 71 -15 97 -12 54 -7 74 23 90 26 15 24 15 137
23 51 3 97 9 101 11 4 3 8 18 8 33 0 30 -21 45 -80 57 -19 3 -41 10 -50 15 -8
4 -31 10 -50 14 -56 9 -81 58 -86 164 -9 191 -12 211 -24 226 -14 17 -26 18
-56 3z m40 -200 c2 -62 9 -125 14 -139 15 -39 62 -89 83 -89 13 0 18 -4 13
-12 -4 -7 -3 -8 5 -4 6 4 28 2 49 -5 20 -7 40 -13 44 -14 3 0 9 -3 13 -7 8 -8
-92 -21 -123 -16 -27 4 -112 -66 -112 -92 0 -11 -4 -20 -9 -20 -7 0 -17 -30
-26 -80 -3 -16 -31 -123 -41 -153 -13 -40 -23 3 -30 127 -6 110 -11 136 -33
180 -24 46 -31 52 -78 66 -28 8 -55 18 -59 23 -4 4 -18 7 -31 7 -26 0 -32 18
-5 20 105 4 163 17 177 40 3 5 11 8 16 4 5 -3 9 -2 8 3 -4 15 14 48 35 66 12
10 15 16 9 12 -15 -7 -16 6 -4 37 5 13 22 63 37 111 34 107 41 98 48 -65z
m-1624 -547 c0 -16 5 -109 10 -207 10 -178 24 -249 55 -274 8 -7 12 -16 9 -21
-3 -5 0 -9 7 -9 7 0 20 -6 28 -13 15 -13 86 -37 153 -53 16 -3 26 -10 23 -14
-3 -5 4 -6 15 -3 11 3 20 1 20 -5 0 -6 8 -8 18 -6 9 3 26 -2 37 -10 19 -15 19
-16 -10 -17 -87 -2 -147 -7 -152 -13 -4 -3 -24 -6 -45 -6 -21 0 -53 -6 -71
-14 -48 -20 -115 -98 -129 -150 -6 -25 -15 -43 -20 -40 -4 3 -5 -2 -2 -10 3
-8 0 -25 -7 -38 -7 -13 -12 -27 -11 -31 5 -16 -31 -167 -40 -167 -4 0 -8 -11
-8 -24 0 -14 -4 -27 -10 -31 -5 -3 -6 -13 -3 -22 4 -10 2 -14 -4 -10 -19 12
-30 127 -34 344 -1 57 -5 100 -10 97 -5 -3 -10 1 -11 8 0 7 -2 18 -3 23 -2 6
-3 13 -4 18 -2 17 -7 23 -36 48 -39 34 -61 45 -108 53 -24 4 -35 11 -31 18 4
7 3 8 -4 4 -6 -4 -37 1 -69 10 -32 9 -71 18 -86 21 -15 3 -26 10 -24 17 4 12
-3 11 167 21 69 4 134 13 145 18 11 6 25 10 30 8 6 -1 7 1 3 4 -4 4 3 16 17
26 35 28 64 80 81 146 9 32 27 101 41 153 14 52 30 114 35 138 11 49 38 59 38
13z"/>
<path d="M6935 3073 c-47 -6 -136 -33 -176 -54 -37 -18 -38 -18 -83 2 -35 15
-68 20 -134 20 -154 0 -309 -55 -504 -177 l-87 -55 -33 17 c-43 23 -138 23
-205 0 -89 -30 -268 -158 -613 -440 -74 -60 -154 -127 -178 -147 -35 -30 -49
-37 -75 -33 -18 2 -90 11 -162 19 -398 46 -687 116 -1025 245 -258 99 -446
162 -585 195 -838 203 -1858 3 -2508 -492 -184 -140 -401 -355 -455 -452 -20
-36 -21 -41 -6 -55 8 -9 19 -16 24 -16 5 0 34 33 64 73 73 97 277 294 401 388
418 313 955 508 1545 560 167 15 493 7 650 -16 232 -33 383 -77 852 -249 252
-93 396 -135 599 -176 396 -79 806 -120 1404 -140 287 -10 359 -18 470 -55
134 -45 272 -152 319 -248 73 -145 -19 -326 -210 -417 -157 -74 -339 -92 -734
-70 -302 16 -936 17 -1125 2 -300 -25 -536 -68 -733 -133 -93 -31 -123 -54
-100 -77 17 -17 34 -15 128 17 171 58 377 99 615 123 178 18 912 17 1279 -1
l289 -15 -49 -44 c-27 -25 -116 -99 -199 -165 -556 -444 -958 -690 -1285 -785
-73 -21 -106 -24 -230 -24 -344 0 -712 75 -1355 277 -690 216 -912 239 -1330
135 -176 -43 -339 -99 -538 -184 -40 -18 -46 -40 -15 -59 12 -8 44 0 135 35
408 158 743 227 976 200 131 -16 364 -73 642 -158 357 -108 581 -173 730 -209
392 -96 783 -131 971 -85 193 46 493 196 789 393 199 133 555 407 779 599 l98
85 102 21 c239 50 422 201 458 376 l11 56 171 132 c482 370 827 663 888 753
43 64 45 83 19 140 -34 76 -131 135 -251 154 -42 7 -69 16 -75 27 -51 86 -133
155 -203 173 -52 13 -112 18 -147 14z m106 -76 c85 -21 183 -96 164 -127 -3
-6 -19 -10 -35 -10 -79 0 -288 -91 -495 -215 -125 -75 -436 -283 -590 -394
l-140 -101 -90 1 c-49 1 -127 4 -172 7 l-83 7 127 95 c428 320 831 589 1021
684 126 63 195 75 293 53z m-448 -23 c20 -4 37 -9 37 -13 -1 -3 -47 -33 -103
-65 -197 -114 -456 -295 -852 -594 l-190 -144 -65 6 c-36 3 -84 6 -108 6 -24
0 -42 4 -40 9 12 36 591 491 790 622 206 135 392 196 531 173z m844 -203 c58
-25 123 -90 123 -121 0 -38 -159 -208 -182 -194 -6 4 -8 3 -4 -4 6 -10 -150
-145 -404 -348 -133 -106 -417 -325 -437 -337 -8 -5 -20 7 -34 35 -72 145
-236 270 -407 310 -29 7 -52 16 -52 19 0 11 355 258 548 380 219 140 416 242
522 269 104 28 253 23 327 -9z m-1560 1 c9 -5 -37 -45 -135 -119 -81 -61 -245
-193 -364 -292 l-217 -181 -93 7 -93 8 115 96 c327 272 552 437 642 469 55 19
124 25 145 12z"/>
<path d="M5760 1963 c-76 -5 -163 -24 -201 -44 -110 -56 -135 -191 -79 -426
34 -146 20 -138 267 -137 311 1 491 30 563 91 46 38 72 98 78 175 12 166 -69
259 -266 308 -96 24 -268 40 -362 33z m246 -78 c164 -23 261 -68 297 -137 28
-55 32 -108 13 -165 -20 -59 -56 -97 -114 -117 -67 -24 -293 -46 -470 -46
l-162 0 -11 28 c-23 61 -41 162 -41 237 -1 86 11 122 55 163 51 48 241 65 433
37z"/>
</g>
</svg>
