<?xml version="1.0" standalone="no"?>
<!DOCTYPE svg PUBLIC "-//W3C//DTD SVG 20010904//EN"
 "http://www.w3.org/TR/2001/REC-SVG-20010904/DTD/svg10.dtd">
<svg version="1.0" xmlns="http://www.w3.org/2000/svg"
 width="626.000000pt" height="417.000000pt" viewBox="0 0 626.000000 417.000000"
 preserveAspectRatio="xMidYMid meet">
<metadata>
Created by potrace 1.16, written by Peter Selinger 2001-2019
</metadata>
<g transform="translate(0.000000,417.000000) scale(0.100000,-0.100000)"
fill="#9e1149" stroke="none">
<path d="M352 3970 c0 -113 -3 -334 -7 -491 -8 -289 10 -989 25 -989 4 0 13 7
20 15 27 33 28 12 1 -30 -22 -35 -31 -65 -41 -149 -14 -114 -10 -155 22 -249
66 -196 152 -299 354 -432 65 -43 72 -45 141 -45 39 0 119 9 177 20 107 21
330 89 376 114 23 13 27 12 60 -24 19 -21 59 -83 89 -139 52 -97 57 -103 131
-150 42 -27 93 -69 113 -94 45 -56 121 -107 158 -107 20 0 36 10 56 37 24 31
29 48 31 113 3 54 -1 87 -12 114 -9 21 -16 41 -16 43 0 3 33 -25 73 -62 39
-37 151 -133 247 -213 242 -201 338 -289 430 -397 49 -56 96 -101 120 -113 34
-17 38 -21 25 -32 -8 -7 -15 -26 -15 -44 0 -39 48 -134 78 -154 l23 -15 -23
-24 c-39 -42 -108 -69 -108 -43 0 6 8 10 18 10 26 0 62 29 62 49 0 11 -18 41
-40 67 -22 27 -50 76 -62 108 -12 33 -33 71 -47 86 -103 109 -142 147 -181
179 -25 19 -75 63 -111 96 -114 106 -390 315 -416 315 -38 0 8 -43 205 -189
286 -213 286 -213 312 -267 32 -65 30 -121 -4 -151 -38 -32 -64 -29 -127 16
-97 69 -192 109 -214 91 -9 -7 -38 11 -101 61 -97 77 -118 90 -239 140 -107
43 -141 66 -201 132 -60 65 -81 107 -96 187 -7 33 -15 60 -18 60 -4 0 -3 -24
2 -52 14 -82 61 -168 123 -227 52 -49 77 -63 265 -148 36 -17 101 -59 145 -94
167 -135 260 -184 371 -195 65 -6 72 -4 97 17 39 34 45 84 18 144 -12 27 -20
50 -18 51 7 7 147 -137 163 -167 11 -22 15 -47 11 -76 -6 -56 -49 -123 -79
-123 -13 0 -71 27 -130 60 -59 33 -109 60 -112 60 -3 0 -6 -6 -6 -14 0 -21 54
-63 132 -102 64 -32 74 -35 121 -27 43 7 55 14 74 42 15 22 23 49 23 77 0 54
13 57 28 5 7 -21 32 -65 57 -97 25 -31 45 -61 45 -65 0 -14 -44 -39 -69 -39
-15 0 -40 14 -63 37 -43 42 -57 39 -34 -5 23 -44 63 -72 103 -72 44 0 67 12
127 68 46 43 50 44 62 27 8 -10 14 -25 14 -32 0 -29 37 -34 94 -13 74 28 135
84 146 135 11 51 4 58 -23 20 -71 -101 -143 -137 -195 -98 -37 28 -49 75 -30
116 33 68 104 140 265 270 92 74 222 185 288 247 122 115 195 174 203 166 2
-3 -57 -66 -132 -142 -259 -260 -392 -515 -310 -591 53 -49 42 -57 400 282
325 308 487 475 520 540 29 54 81 241 71 251 -2 3 -36 -36 -76 -85 -121 -151
-237 -230 -352 -239 -59 -4 -69 -2 -89 18 -21 21 -22 29 -18 104 6 85 25 137
75 204 42 56 46 35 4 -23 -21 -31 -45 -78 -51 -106 -29 -118 19 -229 74 -173
12 11 16 35 16 88 0 63 3 75 23 94 26 24 85 30 105 10 27 -27 14 -66 -35 -105
-25 -21 -56 -47 -67 -58 l-21 -20 23 -3 c51 -7 226 129 316 246 69 90 101 156
157 322 56 168 56 160 23 303 l-7 29 49 -38 c130 -99 521 -224 769 -245 136
-11 359 -10 385 3 8 4 42 19 75 33 71 31 137 92 171 157 54 106 54 99 51 1089
-2 788 -3 874 -11 624 -5 -159 -9 -319 -9 -355 1 -36 4 -303 8 -595 8 -581 5
-636 -44 -740 -56 -119 -159 -186 -313 -206 -141 -18 -391 2 -558 45 -270 69
-460 147 -539 221 -41 38 -59 69 -110 182 -92 202 -145 274 -242 324 -74 37
-80 18 -14 -42 93 -84 131 -128 167 -191 18 -32 56 -98 85 -146 59 -102 93
-202 93 -277 0 -68 -75 -292 -133 -395 -29 -53 -72 -105 -142 -175 -90 -89
-207 -176 -220 -163 -3 3 18 23 47 44 67 50 87 87 67 123 -8 14 -28 29 -46 34
-68 20 -129 -48 -118 -131 4 -23 3 -51 0 -62 -8 -24 -38 -26 -56 -3 -19 22
-17 138 3 183 18 41 166 240 179 240 5 0 8 3 7 8 -1 4 4 19 10 34 32 77 44
144 40 217 -4 65 -10 88 -46 156 -98 188 -252 318 -420 354 -63 13 -152 14
-204 2 -48 -11 -48 -1 2 52 29 32 81 65 198 125 173 89 184 92 417 112 66 5
158 15 205 21 62 8 129 8 255 -1 454 -30 514 -27 576 34 59 57 79 127 99 349
11 123 13 913 2 902 -3 -3 -7 -209 -7 -458 -2 -504 -12 -625 -60 -724 -57
-115 -115 -127 -480 -98 -202 16 -344 18 -425 5 -30 -5 -113 -14 -185 -20
-166 -13 -194 -17 -225 -26 -14 -4 -99 -46 -189 -92 -159 -82 -192 -107 -233
-173 -9 -15 -33 -32 -55 -39 -62 -21 -103 -44 -211 -123 -157 -115 -211 -120
-334 -31 -27 19 -91 57 -143 85 -108 58 -199 79 -337 79 l-91 0 -49 46 c-130
122 -298 140 -593 64 -166 -43 -245 -48 -317 -21 -65 25 -112 72 -127 128 -27
101 -43 486 -38 923 3 239 8 445 12 458 6 18 4 22 -13 22 -19 0 -20 -9 -27
-257 -4 -142 -5 -415 -2 -608 5 -309 8 -360 26 -433 25 -101 52 -225 48 -228
-1 -1 -22 2 -47 6 -67 13 -72 -5 -9 -35 61 -28 85 -31 92 -11 5 11 14 12 49 4
74 -17 280 -3 391 26 187 51 334 54 421 9 36 -18 135 -95 136 -105 0 -3 -17
-12 -37 -18 -135 -43 -270 -166 -341 -312 -55 -110 -64 -155 -52 -258 5 -46 8
-85 6 -87 -5 -6 -34 31 -70 91 -20 33 -36 54 -36 47 0 -18 26 -65 76 -138 25
-36 43 -68 40 -70 -3 -3 -19 0 -37 6 -39 13 -49 14 -49 2 0 -5 15 -13 33 -16
70 -16 144 -74 222 -175 74 -97 89 -135 90 -226 0 -73 -3 -84 -28 -117 -16
-22 -37 -37 -49 -37 -17 0 -18 2 -8 15 16 19 9 178 -10 217 -14 30 -64 58
-104 58 -32 0 -56 -34 -63 -90 -3 -22 -7 -40 -9 -40 -2 0 -34 20 -71 43 -63
41 -72 51 -122 143 -30 54 -69 116 -87 136 -80 90 -84 292 -9 493 48 128 40
154 -13 45 -87 -178 -111 -349 -64 -453 l21 -48 -44 -19 c-122 -52 -418 -120
-526 -120 -54 0 -63 4 -148 60 -134 90 -220 178 -268 275 -84 167 -101 253
-79 394 12 79 20 102 53 149 102 149 270 210 516 188 54 -4 101 -6 104 -3 3 4
-1 13 -10 21 -8 8 -17 12 -21 9 -3 -4 -6 -2 -6 3 0 11 -1 11 -120 20 -153 11
-261 -27 -413 -147 -49 -39 -90 -69 -92 -67 -1 2 -8 176 -14 388 -9 287 -10
452 -1 650 7 173 7 328 1 445 l-9 180 0 -205z m3304 -1411 c98 -18 195 -71
277 -152 81 -80 156 -194 183 -275 29 -92 0 -258 -58 -332 -35 -43 -40 -36
-13 18 117 233 0 535 -258 662 -95 47 -224 75 -306 67 -57 -6 -62 1 -9 13 49
12 117 11 184 -1z m-1121 -43 c65 -17 167 -69 285 -146 l95 -62 65 6 65 6 -50
-30 c-27 -16 -55 -30 -61 -30 -6 0 -81 43 -165 97 -169 105 -238 141 -314 159
l-50 12 40 1 c22 0 63 -5 90 -13z m1831 -923 c-3 -10 -10 -38 -16 -63 -16 -66
-30 -100 -61 -145 -49 -73 -172 -203 -324 -342 -82 -75 -222 -206 -310 -291
-88 -85 -170 -161 -182 -169 -29 -20 -60 -9 -79 29 -20 40 -13 81 33 172 70
141 143 236 291 383 132 129 156 163 117 163 -19 0 -91 -60 -230 -189 -66 -62
-178 -158 -250 -214 -215 -167 -304 -275 -292 -353 6 -35 -9 -57 -19 -29 -10
24 13 117 42 170 13 25 24 48 24 51 0 2 -12 4 -26 4 -22 0 -13 9 53 58 157
117 326 288 576 585 82 97 151 177 153 177 2 0 -3 -19 -11 -41 -8 -23 -15 -75
-15 -115 0 -63 3 -76 23 -95 19 -18 31 -20 97 -17 89 6 145 31 233 106 59 50
157 159 157 174 0 4 5 8 11 8 6 0 8 -8 5 -17z m-2471 -98 c18 -9 38 -28 44
-42 14 -30 28 -193 17 -193 -4 0 -43 28 -88 61 l-80 62 6 41 c8 49 31 86 52
86 9 0 31 -7 49 -15z m1195 -743 c0 -4 -6 -16 -14 -27 -20 -29 -46 -123 -46
-166 0 -21 -4 -41 -10 -44 -24 -15 -99 99 -100 150 0 34 16 47 86 71 76 26 84
27 84 16z"/>
</g>
</svg>
