<?xml version="1.0" standalone="no"?>
<!DOCTYPE svg PUBLIC "-//W3C//DTD SVG 20010904//EN"
 "http://www.w3.org/TR/2001/REC-SVG-20010904/DTD/svg10.dtd">
<svg version="1.0" xmlns="http://www.w3.org/2000/svg"
 width="480.000000pt" height="480.000000pt" viewBox="0 0 480.000000 480.000000"
 preserveAspectRatio="xMidYMid meet">
<metadata>
Created by potrace 1.16, written by Peter Selinger 2001-2019
</metadata>
<g transform="translate(0.000000,420.000000) scale(0.1, -0.09)"
fill="#9e1149" stroke="none">
<path d="M1585 4640 c-3 -5 2 -29 13 -52 14 -32 18 -58 14 -105 -8 -112 4
-165 56 -240 74 -108 114 -161 156 -209 21 -24 33 -44 27 -44 -22 0 -92 41
-86 50 4 6 -1 7 -11 3 -10 -4 -15 -2 -11 4 3 5 0 10 -7 10 -20 0 -127 64 -121
73 3 4 -3 7 -13 6 -9 0 -16 5 -14 12 1 6 -1 11 -5 11 -22 -4 -33 2 -27 14 4 6
4 9 -1 5 -11 -11 -106 43 -98 55 3 6 1 7 -6 3 -6 -4 -37 8 -69 27 -31 19 -103
58 -159 87 -57 29 -101 55 -99 59 2 3 -15 6 -38 6 -41 0 -42 -1 -44 -33 -2
-27 5 -41 36 -72 26 -26 36 -43 31 -52 -20 -30 1 -147 29 -168 4 -3 20 -21 36
-40 70 -87 139 -149 246 -220 165 -110 284 -198 292 -218 12 -31 8 -87 -13
-152 -15 -50 -19 -79 -14 -126 7 -62 -6 -106 -41 -142 -8 -7 -26 -33 -40 -58
-14 -24 -30 -42 -35 -38 -5 3 -6 -3 -2 -12 5 -13 3 -15 -7 -9 -9 5 -11 4 -6
-3 9 -15 -12 -54 -24 -47 -6 4 -7 -1 -3 -11 4 -12 3 -15 -5 -10 -7 4 -10 2 -7
-7 3 -7 -6 -26 -20 -41 -14 -15 -25 -29 -25 -32 0 -12 -57 -94 -62 -89 -3 4
-5 -2 -5 -12 1 -10 -3 -17 -10 -16 -8 2 -10 -4 -6 -14 5 -12 3 -14 -7 -8 -8 5
-11 4 -7 -2 7 -11 -40 -105 -55 -111 -23 -10 -81 -253 -129 -542 -12 -74 -26
-136 -31 -138 -4 -2 -8 -10 -8 -18 0 -7 -16 -53 -37 -101 -20 -49 -42 -108
-50 -133 -17 -55 -53 -290 -53 -346 0 -38 -5 -47 -69 -107 -65 -61 -193 -147
-219 -147 -7 0 -12 -4 -12 -9 0 -11 -56 -32 -64 -24 -3 4 -6 1 -6 -5 0 -7 -3
-11 -7 -11 -5 1 -11 0 -15 -1 -5 -1 -11 -3 -15 -5 -5 -1 -24 -9 -44 -18 -20
-9 -49 -18 -64 -21 -35 -7 -53 -30 -25 -34 24 -4 178 48 260 87 71 35 74 36
64 19 -4 -7 -3 -8 5 -4 6 4 9 11 6 16 -3 5 19 22 49 39 29 17 83 60 119 96 70
69 85 104 72 164 -4 21 -3 31 5 31 9 0 11 12 6 39 -10 63 20 205 65 306 23 49
45 92 50 93 5 2 7 8 3 13 -3 5 -1 9 4 9 6 0 40 92 76 205 37 113 70 205 74
205 4 0 15 13 24 28 26 43 70 83 85 78 8 -3 12 -2 8 3 -7 13 101 65 116 55 8
-5 9 -3 4 6 -6 10 -4 12 9 7 9 -4 15 -3 12 2 -5 8 214 121 234 121 5 0 10 3
13 8 2 4 2 2 1 -5 -2 -7 4 -36 14 -65 9 -29 16 -60 17 -68 0 -8 3 -14 7 -13 4
1 23 -4 42 -12 48 -20 92 -18 144 5 24 11 46 19 50 17 4 -1 8 2 9 6 1 5 24 33
52 62 43 45 51 60 51 92 0 21 -7 51 -15 67 -14 27 -14 28 2 15 52 -42 73 -84
73 -144 0 -39 -52 -141 -69 -137 -7 1 -10 -2 -6 -7 8 -14 -76 -106 -166 -181
-59 -49 -137 -110 -142 -110 -4 0 -23 -15 -43 -32 -20 -18 -48 -43 -62 -56
-14 -12 -22 -25 -19 -29 4 -3 3 -11 -3 -18 -29 -34 -55 -257 -33 -279 4 -3 8
-14 9 -23 3 -19 35 -95 44 -103 3 -3 7 -14 8 -25 2 -11 9 -23 14 -26 6 -4 8
-14 5 -24 -4 -9 -3 -13 3 -10 9 5 14 -11 41 -118 24 -99 -5 -343 -45 -369 -6
-4 -7 -8 -3 -8 5 0 1 -10 -7 -22 -29 -41 -15 -73 21 -50 15 9 46 82 36 82 -5
0 -2 4 6 9 17 11 35 242 26 331 -6 55 -62 240 -75 250 -4 3 -20 42 -35 87 -23
67 -27 94 -22 140 10 104 34 164 86 211 25 23 51 40 58 38 11 -5 27 10 28 26
0 12 104 88 117 86 7 -2 12 2 11 9 -3 11 14 25 42 35 6 1 9 6 8 10 -4 10 35
30 40 21 8 -14 55 -186 102 -372 25 -102 49 -190 53 -195 4 -6 7 -13 8 -16 0
-3 6 -18 12 -33 7 -16 12 -31 12 -34 0 -3 17 -38 37 -79 30 -60 35 -77 24 -83
-8 -5 -11 -16 -8 -25 4 -9 2 -24 -3 -34 -5 -9 -19 -55 -31 -102 -11 -47 -31
-105 -43 -130 -12 -25 -33 -74 -46 -110 -13 -36 -29 -72 -35 -80 -7 -8 -24
-38 -38 -66 -14 -27 -33 -57 -43 -65 -9 -8 -34 -37 -55 -66 -55 -74 -216 -203
-233 -186 -3 3 -6 1 -6 -6 0 -7 -4 -9 -10 -6 -5 3 -10 1 -10 -5 0 -6 -4 -8
-10 -5 -5 3 -10 1 -10 -5 0 -6 -4 -9 -9 -6 -11 7 -91 -24 -91 -35 0 -8 -176
-129 -187 -129 -9 0 -128 -75 -135 -85 -5 -7 -8 -7 -8 0 0 6 -7 1 -15 -9 -8
-11 -15 -17 -15 -13 0 9 -83 -32 -91 -45 -3 -5 -9 -9 -13 -9 -11 2 -161 -72
-164 -81 -2 -4 -8 -6 -13 -2 -5 3 -9 0 -9 -6 0 -6 -4 -8 -10 -5 -5 3 -10 1
-10 -5 0 -6 -4 -8 -10 -5 -5 3 -10 1 -10 -4 0 -6 -3 -10 -7 -9 -14 4 -83 -26
-83 -36 0 -5 -3 -7 -6 -3 -4 3 -13 0 -21 -8 -7 -8 -31 -19 -51 -25 -20 -5 -64
-26 -97 -45 -48 -28 -55 -34 -35 -35 44 0 135 40 450 196 224 111 296 152 470
268 63 42 120 74 128 71 7 -2 11 -1 8 4 -3 5 19 19 50 31 66 27 167 90 212
133 17 17 32 27 32 23 0 -5 7 -3 15 4 8 7 12 16 9 21 -3 5 15 30 39 56 24 27
50 58 56 71 7 12 17 20 23 16 6 -4 8 -3 5 3 -6 10 68 168 96 205 8 10 24 51
37 92 13 42 26 74 29 72 3 -2 7 19 9 47 1 27 6 55 11 61 4 6 12 29 16 51 l7
40 16 -30 c9 -17 15 -33 14 -37 -1 -5 2 -8 7 -8 13 0 52 -70 45 -81 -3 -5 0
-8 8 -7 7 2 12 -5 12 -14 -1 -10 2 -16 6 -13 12 8 33 -23 24 -36 -4 -7 -3 -9
3 -6 10 6 98 -89 98 -107 0 -6 5 -11 11 -11 7 0 48 -30 92 -67 182 -152 352
-230 825 -377 106 -33 298 -97 427 -142 495 -171 593 -200 558 -166 -7 7 -263
97 -568 199 -810 271 -948 326 -1118 440 -113 76 -254 218 -333 335 -38 57
-67 103 -64 103 2 0 -7 12 -20 26 -26 29 -104 206 -131 299 -9 33 -21 63 -26
66 -5 3 -37 120 -72 260 l-63 253 30 41 c16 22 33 39 39 37 5 -1 7 1 4 6 -3 4
8 34 25 67 38 76 40 150 5 209 -13 23 -23 45 -22 51 0 5 -6 10 -14 11 -8 0
-28 6 -45 13 -56 24 -89 24 -163 -1 -58 -20 -74 -22 -83 -12 -6 7 -8 18 -4 24
4 6 1 9 -7 8 -7 -2 -12 5 -12 14 1 10 -2 15 -7 12 -5 -2 -27 33 -50 78 -23 46
-45 85 -49 88 -11 8 -57 136 -79 220 -28 104 -34 162 -26 218 l7 47 15 -50
c35 -120 66 -184 116 -237 41 -43 191 -1 217 61 14 35 9 86 -14 133 -9 17 -14
34 -11 36 7 7 7 7 50 -78 20 -41 43 -79 50 -85 7 -5 44 -71 81 -145 37 -74 74
-141 81 -148 7 -8 21 -28 30 -45 28 -56 105 -182 117 -192 37 -33 96 -116 90
-126 -4 -7 -3 -9 3 -6 12 8 148 -140 148 -162 0 -9 5 -16 12 -16 20 0 133
-129 127 -145 -3 -8 -2 -11 2 -7 4 4 13 2 21 -4 15 -13 18 -33 3 -24 -16 10
-11 -1 7 -16 14 -12 16 -12 9 1 -4 8 1 4 11 -10 32 -44 56 -65 61 -52 6 18
-83 157 -140 220 -27 29 -46 58 -42 64 4 6 3 8 -4 4 -6 -3 -13 -2 -17 4 -11
17 30 11 107 -16 111 -39 111 -39 106 -23 -7 24 -108 68 -195 85 -76 15 -84
20 -115 58 -18 22 -33 44 -33 49 0 4 -3 6 -6 5 -9 -4 -39 23 -39 34 0 5 6 6
13 2 8 -5 8 -3 -2 9 -7 9 -17 15 -21 12 -4 -3 -20 13 -35 35 -15 22 -32 40
-37 40 -5 0 -6 5 -3 10 3 6 1 10 -4 10 -17 0 -64 77 -55 91 4 8 3 9 -4 5 -7
-4 -28 27 -58 86 -26 51 -50 95 -54 98 -4 3 -21 32 -37 65 l-31 60 34 49 c18
27 37 52 41 55 5 3 37 51 72 106 75 117 72 114 78 97 19 -53 368 -411 453
-465 31 -20 42 -9 15 13 -9 7 -14 19 -11 25 5 13 -47 69 -56 60 -7 -7 -138
114 -138 127 0 6 7 5 18 -3 9 -7 4 1 -12 19 -16 17 -33 29 -37 26 -11 -6 -89
74 -86 89 1 6 -3 11 -10 12 -7 0 -24 15 -38 34 -13 19 -28 37 -32 40 -5 4 -18
18 -31 33 l-24 26 29 39 c44 60 117 143 127 143 4 0 6 -9 3 -20 -3 -11 -2 -18
2 -16 3 2 37 -64 75 -147 37 -84 74 -157 82 -163 14 -11 154 -270 154 -285 0
-5 4 -9 10 -9 11 0 94 -161 134 -260 15 -35 30 -66 35 -69 9 -7 151 -335 151
-350 0 -5 6 -16 14 -24 12 -12 38 -65 129 -271 12 -27 27 -54 32 -60 21 -21
66 -117 60 -127 -4 -5 -1 -8 7 -7 7 2 12 -5 12 -14 -1 -10 3 -16 10 -15 6 1
11 -7 11 -18 0 -11 5 -20 10 -20 16 0 107 -93 101 -103 -6 -10 58 -75 77 -78
8 -1 32 -13 53 -27 21 -14 57 -30 79 -36 172 -45 712 -159 838 -177 78 -11 55
13 -30 31 -43 9 -184 41 -313 70 -129 29 -264 58 -300 64 -149 27 -332 103
-315 131 5 8 -13 25 -28 25 -4 0 -40 33 -80 72 -55 55 -83 94 -115 157 -23 47
-42 90 -42 95 0 6 -4 11 -10 11 -5 0 -6 7 -3 17 4 10 2 14 -4 10 -10 -6 -64
106 -120 246 -8 20 -19 37 -24 37 -5 0 -9 14 -9 30 0 17 -4 30 -8 30 -9 0 -50
89 -122 265 -22 54 -45 102 -50 105 -15 9 -60 131 -53 143 4 6 1 7 -7 2 -10
-6 -12 -4 -7 9 5 11 3 15 -5 10 -8 -5 -9 -2 -5 10 5 11 3 15 -5 10 -8 -5 -9
-2 -5 10 4 9 3 15 -1 12 -5 -3 -21 22 -38 54 -16 33 -32 60 -36 60 -4 0 -21
25 -36 57 l-29 56 43 76 c23 42 56 117 74 166 40 112 44 182 13 244 -12 24
-19 49 -16 54 3 6 1 7 -5 3 -17 -10 -17 -9 38 108 64 134 77 194 61 276 -12
60 -5 94 23 112 6 4 11 39 11 85 l0 78 -45 49 c-25 26 -58 55 -73 63 -26 13
-32 12 -80 -10 -29 -14 -99 -66 -156 -116 -57 -50 -107 -89 -111 -86 -4 3 -14
-3 -21 -13 -13 -16 -13 -16 6 -2 18 14 19 14 6 -2 -19 -25 -108 -78 -117 -70
-4 4 -4 2 -1 -4 6 -10 -14 -25 -33 -25 -11 -1 -39 -32 -35 -40 6 -9 -73 -75
-85 -72 -4 1 -16 -8 -26 -20 -19 -22 -19 -22 2 -7 11 8 7 2 -9 -13 l-28 -28
-32 19 c-18 11 -31 24 -30 29 1 5 -16 27 -38 48 -21 22 -39 36 -39 31 0 -10
-115 86 -119 99 -5 17 -23 35 -30 30 -4 -2 -23 13 -43 33 -52 55 -169 165
-194 182 -12 8 -52 42 -89 75 -37 33 -74 63 -83 67 -26 10 -70 9 -77 -2z
m1489 -145 c13 -9 31 -31 40 -50 17 -36 22 -135 6 -135 -5 0 -7 -6 -4 -14 15
-39 -120 -255 -236 -378 -32 -35 -71 -79 -87 -100 -97 -127 -107 -137 -115
-125 -14 22 -8 43 22 77 17 19 33 45 36 57 4 13 10 23 14 23 4 0 20 29 36 64
15 36 31 63 34 61 12 -7 32 131 24 169 -7 38 -88 136 -113 136 -7 0 -9 5 -6
11 4 6 13 8 21 5 8 -3 14 -1 14 5 0 6 7 9 15 5 8 -3 15 -2 15 2 0 7 44 26 77
35 21 5 134 133 126 141 -4 3 -2 6 4 6 6 0 9 9 6 20 -5 18 -3 19 21 10 14 -5
37 -17 50 -25z m-1329 -83 c42 -40 91 -80 108 -88 30 -14 37 -14 71 0 l39 16
51 -44 c28 -25 107 -99 176 -165 69 -67 130 -121 135 -121 6 0 1 -7 -9 -15
-11 -8 -17 -15 -14 -15 3 0 -8 -15 -25 -32 -16 -18 -33 -32 -37 -31 -4 1 -22
-15 -41 -35 l-34 -37 40 35 40 35 -41 -43 c-38 -40 -42 -42 -67 -31 -14 7 -24
16 -21 20 3 5 -3 6 -12 2 -13 -5 -15 -3 -9 7 5 9 4 11 -3 6 -30 -19 -213 108
-196 135 3 5 1 8 -4 7 -12 -4 -102 94 -96 104 3 5 0 7 -8 6 -7 -2 -13 6 -13
17 0 11 -7 20 -15 20 -8 0 -14 8 -14 18 1 9 -2 14 -7 12 -4 -3 -23 23 -40 57
-17 35 -35 65 -39 68 -13 10 -30 73 -30 115 0 74 15 71 115 -23z m1002 -179
c30 -20 56 -80 56 -129 0 -49 -22 -134 -34 -134 -5 0 -8 -3 -7 -7 2 -5 -16
-42 -39 -84 -43 -77 -90 -141 -163 -219 -24 -25 -54 -62 -68 -82 -13 -21 -29
-38 -34 -38 -5 0 -6 -5 -3 -10 3 -6 -1 -13 -9 -16 -9 -3 -13 -10 -10 -15 3 -5
0 -9 -5 -9 -6 0 -11 -6 -11 -14 0 -8 -4 -16 -8 -18 -5 -1 -28 -33 -51 -70 -24
-38 -47 -68 -52 -68 -6 0 -7 -4 -4 -10 3 -5 1 -10 -4 -10 -6 0 -11 -6 -11 -13
0 -7 -8 -22 -18 -33 -10 -10 -23 -28 -30 -39 -10 -19 -12 -18 -22 13 -7 17
-16 32 -21 32 -5 0 -9 6 -9 14 0 7 -7 19 -15 26 -8 7 -13 16 -10 20 3 5 1 10
-3 12 -4 1 -30 39 -56 83 -27 44 -66 96 -87 116 -22 20 -39 40 -39 45 0 15
179 199 191 196 6 -1 8 2 5 7 -3 5 48 64 115 132 72 75 122 119 126 111 2 -6
10 -9 16 -5 7 4 15 8 20 9 4 1 8 2 10 3 1 2 13 4 26 7 31 6 69 34 117 87 55
61 69 80 70 95 3 42 4 43 27 36 12 -4 32 -13 44 -21z m-1542 -15 c25 -17 45
-36 45 -41 0 -4 5 -5 10 -2 6 3 10 2 10 -3 0 -9 37 -25 53 -23 4 1 7 -4 7 -10
0 -5 4 -8 9 -5 5 4 11 1 13 -5 2 -6 25 -13 52 -14 41 -3 52 0 71 21 l24 26
100 -62 c56 -34 101 -66 101 -72 0 -5 4 -7 9 -4 5 3 12 -1 15 -10 3 -8 10 -12
16 -9 5 3 10 3 10 -2 0 -8 54 -36 66 -33 4 1 10 -2 13 -8 7 -10 138 -75 161
-78 8 -2 20 -10 26 -18 6 -9 14 -13 17 -9 4 3 7 2 7 -4 0 -5 6 -10 13 -10 6 0
29 -7 51 -16 l38 -17 -60 -62 c-33 -35 -75 -81 -94 -102 l-35 -39 -28 51 c-34
63 -73 81 -132 60 -21 -7 -45 -13 -53 -13 -9 0 -14 -8 -12 -18 5 -27 -16 -20
-79 28 -67 51 -130 96 -237 168 -108 74 -213 176 -245 239 -26 52 -37 128 -17
128 5 0 30 -14 55 -32z m1893 -134 c-5 -36 -19 -94 -32 -128 -27 -75 -93 -196
-107 -196 -6 0 -7 -5 -4 -10 3 -6 -1 -13 -9 -16 -9 -3 -16 -10 -16 -15 0 -11
-50 -64 -60 -64 -5 0 -12 -4 -17 -9 -5 -5 -3 -6 5 -2 6 4 12 3 12 -2 0 -14
-26 -33 -34 -25 -4 4 -4 0 -1 -8 3 -9 -5 -26 -19 -42 -13 -14 -21 -28 -18 -31
3 -3 0 -6 -6 -6 -6 0 -12 -8 -14 -17 -4 -17 -31 31 -58 103 -14 36 23 89 223
318 49 56 103 127 120 158 18 32 35 58 38 58 3 0 2 -30 -3 -66z m-82 -375 c28
-32 25 -116 -10 -222 -16 -49 -35 -94 -42 -102 -7 -7 -10 -15 -7 -19 4 -3 2
-6 -3 -6 -5 0 -18 -20 -29 -45 -11 -25 -22 -45 -26 -45 -4 0 -12 14 -19 30 -7
17 -17 30 -22 30 -5 0 -7 4 -3 9 3 5 -1 16 -9 23 -7 8 -23 33 -35 56 -19 37
-20 45 -8 62 8 11 17 17 22 12 5 -4 5 -2 1 5 -7 13 25 61 102 152 28 34 52 66
52 72 0 15 16 10 36 -12z m-1296 -523 c0 -28 40 -149 52 -157 6 -3 9 -9 9 -13
-2 -11 86 -180 122 -233 l34 -51 -126 -61 c-363 -176 -430 -213 -469 -256 -22
-24 -37 -46 -34 -49 3 -3 0 -6 -7 -6 -7 0 -10 -4 -7 -9 6 -8 -45 -135 -59
-149 -9 -8 1 61 15 98 5 14 20 84 35 155 27 133 48 185 115 285 20 30 61 95
91 143 30 49 65 106 79 128 14 21 49 77 78 124 52 83 72 98 72 51z m441 -465
c16 -16 29 -40 29 -53 0 -38 -45 -93 -111 -137 -75 -50 -104 -59 -138 -40 -33
19 -71 75 -71 107 0 35 65 95 94 87 17 -5 18 -4 6 4 -8 6 -13 11 -10 11 3 0
32 11 65 25 78 32 100 31 136 -4z"/>
<path d="M2220 1731 c-8 -6 -18 -7 -24 -4 -5 3 -6 2 -3 -4 3 -5 -12 -30 -35
-54 -91 -99 -192 -296 -208 -406 -5 -37 -7 -69 -5 -71 8 -9 25 10 25 28 0 10
5 31 11 47 7 15 13 41 15 57 9 70 135 293 157 279 6 -3 7 -1 3 5 -4 7 -2 12 3
12 6 0 10 3 9 8 -4 11 35 52 44 46 5 -3 8 -2 7 3 -3 18 1 34 9 29 4 -2 9 4 9
15 2 22 3 22 -17 10z"/>
</g>
</svg>
