<?xml version="1.0" standalone="no"?>
<!DOCTYPE svg PUBLIC "-//W3C//DTD SVG 20010904//EN"
 "http://www.w3.org/TR/2001/REC-SVG-20010904/DTD/svg10.dtd">
<svg version="1.0" xmlns="http://www.w3.org/2000/svg"
 width="525.000000pt" height="500.000000pt" viewBox="0 0 525.000000 500.000000"
 preserveAspectRatio="xMidYMid meet">
<metadata>
Created by potrace 1.16, written by Peter Selinger 2001-2019
</metadata>
<g transform="translate(0.000000,500.000000) scale(0.100000,-0.100000)"
fill="#9e1149" stroke="none">
<path d="M3560 4846 c-92 -61 -181 -192 -233 -346 -27 -78 -67 -260 -67 -302
0 -17 -13 -35 -41 -57 -58 -47 -144 -155 -174 -220 -44 -92 -58 -178 -52 -328
l4 -133 -26 0 c-38 1 -55 19 -69 75 -41 159 -168 229 -283 157 -51 -33 -96
-83 -105 -118 -7 -27 -1 -101 10 -126 7 -14 3 -18 -15 -18 -38 0 -107 -48
-134 -94 -37 -64 -29 -155 18 -195 24 -20 21 -36 -18 -101 -19 -32 -35 -69
-35 -83 0 -14 20 -67 45 -117 l44 -92 -2 -112 c-1 -98 1 -116 21 -153 12 -23
22 -50 22 -59 0 -63 -493 -604 -790 -868 -141 -126 -227 -193 -350 -278 -262
-180 -405 -236 -701 -278 -176 -24 -246 -42 -313 -78 -75 -40 -157 -126 -196
-205 -77 -158 -21 -313 158 -430 169 -112 290 -121 474 -36 131 60 168 56 398
-43 237 -101 276 -113 385 -113 80 0 95 3 137 28 26 15 73 58 105 95 120 140
175 188 229 201 60 14 93 8 284 -54 201 -65 352 -80 494 -50 164 35 204 114
156 313 -27 113 -26 157 3 176 12 8 74 26 137 40 139 29 203 56 253 104 61 59
68 129 25 257 -8 26 -11 64 -7 110 13 169 -11 342 -78 550 -22 71 -24 91 -19
176 5 88 4 98 -14 114 -20 19 -20 19 10 31 49 21 70 67 70 154 0 41 -5 95 -11
120 -6 25 -14 117 -19 205 -10 181 -73 540 -109 617 -22 46 -55 86 -108 129
-42 35 -55 88 -56 224 -2 184 40 296 156 422 38 40 72 73 75 73 4 0 8 -33 10
-73 10 -277 156 -307 309 -63 l37 58 17 -40 c52 -123 212 -80 281 75 18 40 22
43 57 43 25 0 67 14 119 40 106 53 114 53 91 -7 -30 -79 -38 -135 -28 -186 14
-61 49 -101 82 -92 33 10 51 31 107 125 l51 85 57 1 c41 0 71 8 108 27 54 28
64 27 64 -7 0 -30 41 -94 76 -116 35 -24 110 -26 159 -5 114 47 282 284 321
452 19 84 11 137 -26 175 -35 35 -60 35 -99 2 -25 -21 -34 -23 -51 -14 -34 18
-91 8 -112 -20 -56 -75 -24 -145 92 -202 94 -46 120 -54 120 -36 0 7 -32 26
-70 41 -84 34 -140 83 -140 121 0 35 15 63 41 77 27 14 79 -6 79 -31 0 -29 11
-50 26 -50 21 0 27 22 15 53 -9 22 -7 29 12 42 37 26 66 19 83 -20 19 -47 18
-91 -6 -169 -43 -136 -158 -305 -256 -372 -98 -67 -192 -46 -229 51 -10 24
-15 50 -12 58 3 7 40 24 83 36 114 33 162 56 175 85 27 59 -44 125 -118 111
-50 -9 -126 -88 -149 -153 -17 -48 -22 -53 -84 -82 -69 -31 -140 -40 -140 -17
1 6 9 37 20 67 24 67 25 128 4 158 -28 41 -80 19 -114 -48 -32 -62 -23 -129
23 -178 l22 -23 -29 -55 c-38 -72 -93 -144 -111 -144 -22 0 -44 41 -51 91 -4
31 1 63 15 108 44 133 23 153 -97 92 -43 -22 -94 -42 -114 -46 l-35 -7 1 89
c2 141 -37 215 -124 234 -121 27 -225 -89 -175 -194 16 -35 16 -39 -4 -98 -42
-126 -150 -282 -216 -313 -66 -32 -103 3 -124 119 -6 32 -11 84 -11 115 l0 57
83 68 c171 143 264 264 311 407 29 87 33 165 11 208 -13 25 -21 30 -53 29 -21
0 -52 -10 -72 -23z m100 -11 c9 -10 11 -39 8 -93 -10 -165 -117 -329 -327
-502 l-54 -45 7 53 c11 84 51 232 86 314 50 121 106 197 189 256 49 35 72 40
91 17z m195 -418 c18 -18 38 -51 44 -72 12 -43 15 -144 5 -169 -12 -31 -111
-11 -175 34 -22 17 -29 29 -29 56 0 33 -12 45 -25 24 -13 -20 -25 2 -25 44 0
69 55 116 134 116 30 0 45 -7 71 -33z m993 -73 c32 -22 29 -60 -7 -82 -34 -21
-189 -67 -197 -59 -15 15 72 132 110 147 33 14 70 11 94 -6z m-1028 -200 c36
-10 67 -19 68 -20 10 -7 -56 -107 -84 -129 -47 -36 -115 -35 -143 1 -28 36
-28 109 1 168 l21 44 36 -23 c20 -13 65 -32 101 -41z m-1016 -502 c36 -32 67
-93 64 -123 l-3 -30 -40 35 c-22 20 -48 36 -58 36 -18 0 -41 -45 -31 -61 3 -5
-9 -9 -26 -9 -17 0 -41 -6 -53 -14 -12 -7 -34 -17 -50 -20 -23 -6 -29 -3 -38
21 -20 52 9 115 74 164 56 41 115 41 161 1z m11 -142 c16 -16 34 -30 41 -30 6
0 22 -8 35 -19 l23 -19 -38 -46 c-28 -34 -43 -45 -56 -41 -12 4 -27 -2 -39
-14 -26 -26 -27 -26 -67 4 -18 14 -37 25 -42 25 -13 0 -21 72 -10 87 5 7 28
13 51 15 39 3 42 5 45 36 4 40 20 41 57 2z m243 -124 c47 -54 78 -112 111
-211 27 -81 71 -294 85 -415 l5 -45 -79 -76 c-79 -76 -186 -141 -258 -155 -31
-6 -32 -5 -32 27 -1 19 -7 45 -15 59 -24 42 -18 55 41 85 60 30 129 84 153
118 18 26 15 93 -10 215 -10 52 -19 96 -19 98 0 2 -7 4 -15 4 -18 0 -18 2 0
-130 20 -149 19 -179 -7 -201 -11 -11 -22 -18 -24 -17 -1 2 -7 50 -13 108 -8
74 -19 120 -36 156 -25 50 -25 51 -10 135 19 106 19 105 -4 128 -20 20 -19 20
10 75 17 31 30 64 29 73 -1 10 -2 21 -1 26 2 14 58 -22 89 -57z m-493 -4 c13
-9 17 -132 4 -132 -17 0 -49 -40 -49 -62 0 -12 9 -32 21 -44 12 -13 18 -28 14
-35 -6 -8 -13 -5 -25 11 -10 13 -42 38 -71 55 -51 29 -54 34 -57 75 -4 56 13
95 52 120 31 19 92 26 111 12z m59 -38 c9 -3 16 -12 16 -20 0 -7 11 -21 25
-30 30 -20 32 -35 6 -58 -44 -40 -47 -140 -6 -203 9 -14 15 -26 13 -28 -2 -2
-25 -5 -52 -7 -50 -3 -50 -3 -58 32 -5 25 -3 44 9 67 17 32 17 33 -11 62 -25
26 -27 32 -15 47 7 9 24 20 37 25 22 8 23 12 17 64 -8 57 -7 59 19 49z m66
-12 c0 -11 46 -32 70 -32 11 0 24 -9 30 -20 6 -12 21 -20 36 -20 23 0 24 -1 9
-23 -8 -13 -19 -55 -24 -93 -8 -61 -36 -176 -48 -197 -13 -22 -103 135 -103
181 0 38 19 83 42 100 25 18 22 46 -7 73 -26 25 -31 39 -15 39 6 0 10 -4 10
-8z m-229 -279 c6 -16 20 -38 31 -50 32 -34 74 -297 60 -379 -10 -64 -45 -154
-59 -154 -5 0 -17 21 -26 48 -13 35 -17 74 -15 152 l2 105 -42 79 c-23 44 -42
93 -42 109 0 34 48 117 68 117 7 0 17 -12 23 -27z m479 -116 c14 -67 17 -204
4 -216 -5 -6 -34 2 -72 21 -50 24 -65 28 -77 18 -11 -9 -19 -9 -35 3 -29 20
-160 163 -160 174 0 10 58 33 82 33 9 0 27 -14 40 -31 84 -110 135 -146 164
-117 12 12 13 23 5 59 -6 24 -11 59 -11 77 0 27 4 32 24 32 22 0 26 -7 36 -53z
m-162 -224 c2 -1 2 -11 0 -23 -3 -22 -3 -22 -32 4 -26 25 -53 30 -49 10 8 -48
8 -49 -13 -46 -11 1 -32 -2 -46 -7 -25 -9 -26 -8 -31 37 -4 26 -9 83 -13 127
l-6 80 93 -90 c51 -49 95 -91 97 -92z m491 -133 c1 -25 8 -85 17 -135 21 -119
5 -206 -40 -222 -11 -4 -73 -8 -138 -8 -109 0 -118 -2 -142 -24 -22 -20 -28
-22 -41 -11 -26 22 -60 98 -89 198 -31 111 -31 108 -6 115 13 3 24 -3 35 -19
20 -31 41 -30 128 6 73 31 178 103 232 160 l30 31 6 -23 c4 -13 7 -43 8 -68z
m-439 -17 c0 -45 -74 -57 -146 -24 -46 21 -64 44 -57 72 4 15 15 19 54 19 34
0 51 5 55 15 9 22 94 -52 94 -82z m-188 -69 c13 -4 48 -7 80 -7 50 1 57 -1 61
-20 3 -12 18 -65 34 -118 33 -109 74 -185 103 -194 15 -5 20 -15 20 -44 0 -50
21 -109 65 -179 19 -31 58 -124 86 -207 29 -86 77 -199 112 -265 117 -220 138
-265 149 -327 28 -151 -41 -205 -335 -268 -126 -27 -141 -55 -108 -209 25
-118 27 -186 6 -226 -31 -61 -122 -90 -281 -90 -114 0 -209 18 -369 72 -151
50 -243 60 -301 30 -45 -23 -98 -73 -202 -190 -41 -45 -88 -90 -105 -99 -105
-55 -235 -28 -551 112 -165 73 -221 80 -316 40 -169 -71 -192 -77 -265 -72
-194 12 -415 198 -415 349 0 150 133 307 305 361 28 9 127 27 220 41 94 14
210 36 259 51 308 90 695 374 1129 828 220 229 330 354 418 473 39 52 73 94
78 94 10 0 47 69 55 104 l7 29 19 -30 c10 -17 29 -35 42 -39z m579 -346 c5 -7
6 -49 3 -93 -6 -84 -3 -101 50 -274 35 -112 57 -276 54 -386 -3 -80 -4 -87
-15 -63 -7 15 -21 36 -32 47 -35 35 -111 200 -163 351 -28 83 -69 179 -95 224
-35 60 -48 92 -51 132 l-4 54 33 0 c19 0 57 7 84 15 57 16 124 13 136 -7z"/>
</g>
</svg>
