<svg version="1.0" xmlns="http://www.w3.org/2000/svg">
<g transform="translate(-1,17) scale(0.003,-0.003)"
fill="#000">
<path d="M1150 5424 c-178 -39 -348 -172 -429 -334 -75 -154 -71 -15 -71
-2050 0 -2029 -4 -1897 69 -2045 86 -174 242 -294 438 -339 65 -15 294 -16
2533 -16 2690 0 2523 -3 2657 55 184 82 328 257 368 450 22 105 22 3685 0
3790 -38 182 -169 351 -335 433 -159 78 58 72 -2698 71 -2091 -1 -2477 -3
-2532 -15z m4565 -673 c-113 -110 -2068 -1957 -2084 -1969 -15 -11 -133 103
-1002 959 -541 534 -1004 991 -1029 1015 l-45 44 2105 0 2105 0 -50 -49z m375
-2001 l0 -1470 -2400 0 -2400 0 0 1441 0 1441 263 -257 c144 -142 584 -576
977 -964 740 -731 780 -767 906 -813 82 -30 231 -36 310 -13 77 22 177 75 239
126 28 23 325 301 660 618 1149 1087 1439 1361 1442 1361 2 0 3 -661 3 -1470z"/>
</g>
</svg>
